<svg width="22" height="22" viewBox="0 0 22 22" fill="none" xmlns="http://www.w3.org/2000/svg">
<path d="M15.125 1.83334C17.9095 1.83334 20.1667 4.09056 20.1667 6.875V9.16667C20.1667 9.98076 19.8129 10.7122 19.2508 11.2157L19.25 15.5833C19.25 16.7804 18.4851 17.7988 17.4175 18.1766L17.4167 19.25C17.4167 19.7563 17.0063 20.1667 16.5 20.1667H5.5C4.99374 20.1667 4.58333 19.7563 4.58333 19.25L4.58342 18.1769C3.51528 17.7994 2.75 16.7808 2.75 15.5833V5.5C2.75 3.47496 4.39162 1.83334 6.41667 1.83334H15.125ZM8.70833 10.0833H4.58333V15.5833C4.58333 16.0534 4.9372 16.4409 5.3931 16.4939L5.5 16.5H16.5C16.9701 16.5 17.3575 16.1462 17.4105 15.6902L17.4167 15.5833V11.9167L11.884 11.9175C11.6613 13.4719 10.3243 14.6667 8.70833 14.6667H5.5V12.8333H8.70833C9.42306 12.8333 10.0104 12.288 10.077 11.5908L10.0833 11.4583C10.0833 10.7436 9.53801 10.1563 8.84076 10.0897L8.70833 10.0833ZM15.125 3.66667H6.41667C5.45017 3.66667 4.65834 4.41456 4.58837 5.36318L4.58333 5.5V8.25H8.70833C9.98818 8.25 11.093 8.99939 11.6079 10.0833H17.4167C17.8867 10.0833 18.2742 9.7295 18.3272 9.27355L18.3333 9.16667V6.875C18.3333 5.16216 16.9911 3.7628 15.301 3.67142L15.125 3.66667Z" fill="#ffffff"/>
</svg>
