<svg width="185" height="49" viewBox="0 0 185 49" fill="none" xmlns="http://www.w3.org/2000/svg">
<path d="M10.4013 6.90909H14.1911V21.7386C14.1842 23.098 13.8958 24.2686 13.326 25.2504C12.7562 26.2253 11.9598 26.977 10.9368 27.5057C9.92069 28.0275 8.73639 28.2884 7.38388 28.2884C6.14808 28.2884 5.03587 28.0687 4.04723 27.6293C3.06546 27.183 2.28622 26.5239 1.70952 25.652C1.13281 24.7801 0.84446 23.6953 0.84446 22.3977H4.64453C4.6514 22.9676 4.77498 23.4585 5.01527 23.8704C5.26243 24.2823 5.60227 24.5981 6.0348 24.8178C6.46733 25.0375 6.96508 25.1474 7.52805 25.1474C8.13909 25.1474 8.65743 25.0204 9.0831 24.7663C9.50876 24.5054 9.83144 24.121 10.0511 23.6129C10.2777 23.1049 10.3944 22.4801 10.4013 21.7386V6.90909ZM25.0712 28.3089C23.5265 28.3089 22.1877 27.9691 21.0549 27.2894C19.9221 26.6097 19.0433 25.6589 18.4185 24.4368C17.8006 23.2147 17.4917 21.7867 17.4917 20.1527C17.4917 18.5187 17.8006 17.0872 18.4185 15.8583C19.0433 14.6294 19.9221 13.6751 21.0549 12.9954C22.1877 12.3157 23.5265 11.9759 25.0712 11.9759C26.6159 11.9759 27.9547 12.3157 29.0875 12.9954C30.2203 13.6751 31.0957 14.6294 31.7136 15.8583C32.3384 17.0872 32.6507 18.5187 32.6507 20.1527C32.6507 21.7867 32.3384 23.2147 31.7136 24.4368C31.0957 25.6589 30.2203 26.6097 29.0875 27.2894C27.9547 27.9691 26.6159 28.3089 25.0712 28.3089ZM25.0918 25.3224C25.9294 25.3224 26.6297 25.0924 27.1926 24.6325C27.7556 24.1656 28.1744 23.5408 28.449 22.7582C28.7305 21.9755 28.8713 21.1036 28.8713 20.1424C28.8713 19.1744 28.7305 18.299 28.449 17.5163C28.1744 16.7268 27.7556 16.0986 27.1926 15.6317C26.6297 15.1649 25.9294 14.9315 25.0918 14.9315C24.2336 14.9315 23.5196 15.1649 22.9498 15.6317C22.3868 16.0986 21.9645 16.7268 21.6831 17.5163C21.4084 18.299 21.2711 19.1744 21.2711 20.1424C21.2711 21.1036 21.4084 21.9755 21.6831 22.7582C21.9645 23.5408 22.3868 24.1656 22.9498 24.6325C23.5196 25.0924 24.2336 25.3224 25.0918 25.3224ZM35.9797 28V6.90909H39.7077V14.7976H39.8621C40.0544 14.4131 40.3256 14.0046 40.6757 13.5721C41.0258 13.1327 41.4996 12.7585 42.0969 12.4496C42.6942 12.1338 43.4562 11.9759 44.3831 11.9759C45.6051 11.9759 46.7071 12.2882 47.6888 12.913C48.6775 13.5309 49.4601 14.4474 50.0368 15.6626C50.6204 16.871 50.9122 18.3539 50.9122 20.1115C50.9122 21.8485 50.6273 23.3246 50.0574 24.5398C49.4876 25.755 48.7118 26.6818 47.73 27.3203C46.7483 27.9588 45.636 28.2781 44.3934 28.2781C43.4871 28.2781 42.7354 28.127 42.1381 27.8249C41.5407 27.5228 41.0602 27.159 40.6963 26.7333C40.3393 26.3008 40.0612 25.8923 39.8621 25.5078H39.6459V28H35.9797ZM39.6356 20.0909C39.6356 21.1139 39.7797 22.0098 40.0681 22.7788C40.3633 23.5477 40.7855 24.1484 41.3348 24.581C41.8909 25.0066 42.5637 25.2195 43.3532 25.2195C44.1771 25.2195 44.8671 24.9998 45.4232 24.5604C45.9793 24.1141 46.3981 23.5065 46.6796 22.7376C46.968 21.9618 47.1121 21.0795 47.1121 20.0909C47.1121 19.1091 46.9714 18.2372 46.6899 17.4751C46.4084 16.7131 45.9896 16.1158 45.4335 15.6832C44.8774 15.2507 44.184 15.0344 43.3532 15.0344C42.5568 15.0344 41.8806 15.2438 41.3245 15.6626C40.7684 16.0814 40.3461 16.6684 40.0578 17.4237C39.7763 18.1789 39.6356 19.0679 39.6356 20.0909Z" fill="#27A746"/>
<path d="M54.2463 28V6.90909H58.0669V15.8377H67.84V6.90909H71.671V28H67.84V19.0405H58.0669V28H54.2463ZM85.7436 21.3473V12.1818H89.4716V28H85.8569V25.1886H85.6921C85.3351 26.0742 84.7481 26.7985 83.9311 27.3615C83.121 27.9245 82.122 28.206 80.9343 28.206C79.8976 28.206 78.9811 27.976 78.1847 27.516C77.3951 27.0491 76.7772 26.3729 76.331 25.4872C75.8847 24.5947 75.6616 23.5168 75.6616 22.2536V12.1818H79.3896V21.6768C79.3896 22.6792 79.6642 23.4756 80.2134 24.0661C80.7627 24.6565 81.4835 24.9517 82.3761 24.9517C82.9253 24.9517 83.4574 24.8178 83.9723 24.5501C84.4872 24.2823 84.9094 23.8841 85.239 23.3555C85.5754 22.82 85.7436 22.1506 85.7436 21.3473ZM97.0331 18.7315V28H93.3051V12.1818H96.8683V14.8697H97.0537C97.4176 13.984 97.9977 13.2803 98.7941 12.7585C99.5974 12.2367 100.589 11.9759 101.77 11.9759C102.862 11.9759 103.813 12.2093 104.623 12.6761C105.44 13.143 106.072 13.8192 106.518 14.7049C106.971 15.5906 107.194 16.665 107.187 17.9283V28H103.459V18.505C103.459 17.4477 103.185 16.6204 102.635 16.0231C102.093 15.4258 101.341 15.1271 100.38 15.1271C99.7278 15.1271 99.1477 15.2713 98.6396 15.5597C98.1385 15.8411 97.7437 16.2496 97.4553 16.7852C97.1739 17.3207 97.0331 17.9695 97.0331 18.7315ZM118.876 12.1818V15.0653H109.782V12.1818H118.876ZM112.027 8.39205H115.755V23.2422C115.755 23.7434 115.831 24.1278 115.982 24.3956C116.14 24.6565 116.346 24.835 116.6 24.9311C116.854 25.0272 117.135 25.0753 117.444 25.0753C117.678 25.0753 117.891 25.0581 118.083 25.0238C118.282 24.9895 118.433 24.9586 118.536 24.9311L119.164 27.8455C118.965 27.9142 118.68 27.9897 118.309 28.0721C117.946 28.1545 117.499 28.2025 116.971 28.2163C116.037 28.2437 115.196 28.103 114.448 27.794C113.699 27.4782 113.105 26.9908 112.666 26.3317C112.233 25.6726 112.021 24.8487 112.027 23.8601V8.39205ZM128.827 28.3089C127.241 28.3089 125.871 27.9794 124.718 27.3203C123.571 26.6544 122.689 25.7138 122.071 24.4986C121.453 23.2765 121.144 21.8382 121.144 20.1836C121.144 18.5565 121.453 17.1284 122.071 15.8995C122.696 14.6637 123.568 13.7025 124.687 13.016C125.806 12.3226 127.12 11.9759 128.631 11.9759C129.606 11.9759 130.526 12.1338 131.391 12.4496C132.263 12.7585 133.032 13.2391 133.698 13.8913C134.37 14.5436 134.899 15.3743 135.284 16.3835C135.668 17.3859 135.86 18.5805 135.86 19.9673V21.1104H122.895V18.5977H132.287C132.28 17.8836 132.125 17.2486 131.823 16.6925C131.521 16.1295 131.099 15.6867 130.557 15.364C130.021 15.0413 129.396 14.88 128.682 14.88C127.92 14.88 127.251 15.0653 126.674 15.4361C126.097 15.8 125.648 16.2805 125.325 16.8778C125.009 17.4683 124.848 18.1171 124.841 18.8242V21.0178C124.841 21.9377 125.009 22.7273 125.346 23.3864C125.682 24.0386 126.152 24.5398 126.757 24.8899C127.361 25.2332 128.068 25.4048 128.878 25.4048C129.42 25.4048 129.911 25.3293 130.351 25.1783C130.79 25.0204 131.171 24.7904 131.494 24.4883C131.816 24.1862 132.06 23.812 132.225 23.3658L135.706 23.7571C135.486 24.6771 135.067 25.4804 134.449 26.1669C133.838 26.8466 133.056 27.3752 132.101 27.7528C131.147 28.1236 130.055 28.3089 128.827 28.3089ZM139.014 28V12.1818H142.629V14.8182H142.794C143.082 13.9051 143.576 13.2013 144.277 12.707C144.984 12.2058 145.79 11.9553 146.697 11.9553C146.903 11.9553 147.133 11.9656 147.387 11.9861C147.648 11.9999 147.864 12.0239 148.035 12.0582V15.4876C147.878 15.4326 147.627 15.3846 147.284 15.3434C146.947 15.2953 146.621 15.2713 146.305 15.2713C145.626 15.2713 145.015 15.4189 144.472 15.7141C143.937 16.0025 143.514 16.4041 143.206 16.919C142.897 17.4339 142.742 18.0278 142.742 18.7006V28H139.014ZM150.996 28.2266C150.371 28.2266 149.836 28.0069 149.39 27.5675C148.943 27.1281 148.724 26.5926 148.731 25.9609C148.724 25.343 148.943 24.8144 149.39 24.375C149.836 23.9356 150.371 23.7159 150.996 23.7159C151.6 23.7159 152.126 23.9356 152.572 24.375C153.025 24.8144 153.255 25.343 153.262 25.9609C153.255 26.3797 153.145 26.7608 152.932 27.104C152.726 27.4473 152.452 27.7219 152.108 27.9279C151.772 28.127 151.401 28.2266 150.996 28.2266ZM157.111 28V12.1818H160.725V14.8182H160.89C161.179 13.9051 161.673 13.2013 162.373 12.707C163.08 12.2058 163.887 11.9553 164.793 11.9553C164.999 11.9553 165.229 11.9656 165.483 11.9861C165.744 11.9999 165.96 12.0239 166.132 12.0582V15.4876C165.974 15.4326 165.724 15.3846 165.38 15.3434C165.044 15.2953 164.718 15.2713 164.402 15.2713C163.722 15.2713 163.111 15.4189 162.569 15.7141C162.033 16.0025 161.611 16.4041 161.302 16.919C160.993 17.4339 160.839 18.0278 160.839 18.7006V28H157.111ZM178.691 21.3473V12.1818H182.419V28H178.804V25.1886H178.639C178.282 26.0742 177.695 26.7985 176.878 27.3615C176.068 27.9245 175.069 28.206 173.882 28.206C172.845 28.206 171.928 27.976 171.132 27.516C170.342 27.0491 169.724 26.3729 169.278 25.4872C168.832 24.5947 168.609 23.5168 168.609 22.2536V12.1818H172.337V21.6768C172.337 22.6792 172.611 23.4756 173.161 24.0661C173.71 24.6565 174.431 24.9517 175.323 24.9517C175.873 24.9517 176.405 24.8178 176.92 24.5501C177.434 24.2823 177.857 23.8841 178.186 23.3555C178.523 22.82 178.691 22.1506 178.691 21.3473Z" fill="white"/>
<path d="M0.357955 48.4659V44.9062H1.0142C1.23958 44.7008 1.4517 44.4107 1.65057 44.0362C1.85275 43.6584 2.02344 43.1546 2.16264 42.5249C2.30516 41.8918 2.39962 41.0881 2.44602 40.1136L2.66477 35.8182H8.71023V44.9062H9.88352V48.446H8.71023V46H1.53125V48.4659H0.357955ZM2.4858 44.9062H7.53693V36.9119H3.77841L3.61932 40.1136C3.57955 40.8561 3.50994 41.5289 3.41051 42.1321C3.31108 42.732 3.18348 43.264 3.0277 43.728C2.87192 44.1887 2.69129 44.5814 2.4858 44.9062ZM11.1914 46V44.9062H11.4698C11.6985 44.9062 11.8891 44.8615 12.0415 44.772C12.194 44.6792 12.3166 44.5185 12.4094 44.2898C12.5056 44.0578 12.5785 43.7363 12.6282 43.3253C12.6812 42.911 12.7193 42.384 12.7425 41.7443L12.8817 38.3636H17.9726V46H16.7994V39.4574H13.9954L13.8761 42.1818C13.8495 42.8082 13.7932 43.3601 13.707 43.8374C13.6242 44.3113 13.4966 44.709 13.3242 45.0305C13.1552 45.352 12.9298 45.594 12.6481 45.7564C12.3664 45.9188 12.0134 46 11.5891 46H11.1914ZM24.9991 46V39.4375H22.9707C22.5133 39.4375 22.1537 39.5436 21.8919 39.7557C21.63 39.9678 21.4991 40.2595 21.4991 40.6307C21.4991 40.9953 21.6168 41.282 21.8521 41.4908C22.0907 41.6996 22.4172 41.804 22.8315 41.804H25.2974V42.8977H22.8315C22.3144 42.8977 21.8687 42.8066 21.4941 42.6243C21.1196 42.442 20.8312 42.1818 20.6291 41.8438C20.4269 41.5024 20.3258 41.098 20.3258 40.6307C20.3258 40.16 20.4319 39.7557 20.644 39.4176C20.8561 39.0795 21.1594 38.8194 21.5538 38.6371C21.9515 38.4548 22.4238 38.3636 22.9707 38.3636H26.1127V46H24.9991ZM19.9082 46L22.0758 42.2017H23.3485L21.1809 46H19.9082ZM32.3267 39.4574V38.3636H38.5312V39.4574H36.0255V46H34.8522V39.4574H32.3267ZM43.3279 46.1591C42.5921 46.1591 41.9574 45.9967 41.4238 45.6719C40.8935 45.3438 40.4842 44.8864 40.1958 44.2997C39.9108 43.7098 39.7683 43.0237 39.7683 42.2415C39.7683 41.4593 39.9108 40.7699 40.1958 40.1733C40.4842 39.5734 40.8852 39.1061 41.3989 38.7713C41.916 38.4332 42.5192 38.2642 43.2086 38.2642C43.6063 38.2642 43.9991 38.3305 44.3869 38.4631C44.7746 38.5956 45.1276 38.8111 45.4458 39.1094C45.764 39.4044 46.0175 39.7955 46.2065 40.2827C46.3954 40.7699 46.4898 41.3698 46.4898 42.0824V42.5795H40.6035V41.5653H45.2967C45.2967 41.1345 45.2105 40.75 45.0381 40.4119C44.8691 40.0739 44.6272 39.8071 44.3123 39.6115C44.0007 39.416 43.6328 39.3182 43.2086 39.3182C42.7413 39.3182 42.3369 39.4342 41.9955 39.6662C41.6575 39.8949 41.3973 40.1932 41.215 40.5611C41.0327 40.929 40.9415 41.3234 40.9415 41.7443V42.4205C40.9415 42.9972 41.041 43.486 41.2398 43.8871C41.442 44.2848 41.7221 44.5881 42.08 44.7969C42.438 45.0024 42.854 45.1051 43.3279 45.1051C43.6362 45.1051 43.9146 45.062 44.1631 44.9759C44.415 44.8864 44.6321 44.7538 44.8144 44.5781C44.9967 44.3991 45.1376 44.1771 45.237 43.9119L46.3705 44.2301C46.2512 44.6146 46.0507 44.9527 45.769 45.2443C45.4872 45.5327 45.1392 45.758 44.7249 45.9205C44.3106 46.0795 43.845 46.1591 43.3279 46.1591ZM49.2246 38.3636L51.0541 41.4858L52.8837 38.3636H54.2359L51.77 42.1818L54.2359 46H52.8837L51.0541 43.0369L49.2246 46H47.8723L50.2984 42.1818L47.8723 38.3636H49.2246ZM57.9401 44.608L57.8606 45.1449C57.8042 45.5227 57.718 45.9271 57.602 46.358C57.4894 46.7888 57.3717 47.1948 57.2491 47.576C57.1264 47.9571 57.0253 48.2604 56.9458 48.4858H56.0509C56.094 48.2737 56.1503 47.9936 56.2199 47.6456C56.2895 47.2976 56.3591 46.9081 56.4287 46.4773C56.5017 46.0497 56.5613 45.6122 56.6077 45.1648L56.6674 44.608H57.9401ZM64.6114 46V38.3636H65.7847V41.6847H66.5603L69.3046 38.3636H70.816L67.7336 42.0426L70.8558 46H69.3444L66.8387 42.7784H65.7847V46H64.6114ZM71.9735 39.4574V38.3636H78.178V39.4574H75.6723V46H74.499V39.4574H71.9735ZM82.8753 46.1591C82.1859 46.1591 81.581 45.995 81.0606 45.6669C80.5436 45.3388 80.1392 44.8797 79.8476 44.2898C79.5592 43.6998 79.4151 43.0104 79.4151 42.2216C79.4151 41.4261 79.5592 40.7318 79.8476 40.1385C80.1392 39.5452 80.5436 39.0845 81.0606 38.7564C81.581 38.4283 82.1859 38.2642 82.8753 38.2642C83.5647 38.2642 84.1679 38.4283 84.6849 38.7564C85.2053 39.0845 85.6097 39.5452 85.898 40.1385C86.1897 40.7318 86.3355 41.4261 86.3355 42.2216C86.3355 43.0104 86.1897 43.6998 85.898 44.2898C85.6097 44.8797 85.2053 45.3388 84.6849 45.6669C84.1679 45.995 83.5647 46.1591 82.8753 46.1591ZM82.8753 45.1051C83.399 45.1051 83.8298 44.9709 84.1679 44.7024C84.506 44.4339 84.7562 44.081 84.9186 43.6435C85.081 43.206 85.1622 42.732 85.1622 42.2216C85.1622 41.7112 85.081 41.2356 84.9186 40.7947C84.7562 40.3539 84.506 39.9976 84.1679 39.7259C83.8298 39.4541 83.399 39.3182 82.8753 39.3182C82.3516 39.3182 81.9207 39.4541 81.5827 39.7259C81.2446 39.9976 80.9944 40.3539 80.832 40.7947C80.6695 41.2356 80.5883 41.7112 80.5883 42.2216C80.5883 42.732 80.6695 43.206 80.832 43.6435C80.9944 44.081 81.2446 44.4339 81.5827 44.7024C81.9207 44.9709 82.3516 45.1051 82.8753 45.1051ZM93.7973 44.2699L97.4763 38.3636H98.8286V46H97.6553V40.0938L93.9962 46H92.624V38.3636H93.7973V44.2699ZM111.678 44.9062L111.539 48.1875H110.326V46H109.331V44.9062H111.678ZM101.258 38.3636H102.431V44.9062H105.314V38.3636H106.488V44.9062H109.371V38.3636H110.544V46H101.258V38.3636ZM116.784 46.1591C116.048 46.1591 115.414 45.9967 114.88 45.6719C114.35 45.3438 113.94 44.8864 113.652 44.2997C113.367 43.7098 113.224 43.0237 113.224 42.2415C113.224 41.4593 113.367 40.7699 113.652 40.1733C113.94 39.5734 114.341 39.1061 114.855 38.7713C115.372 38.4332 115.975 38.2642 116.665 38.2642C117.063 38.2642 117.455 38.3305 117.843 38.4631C118.231 38.5956 118.584 38.8111 118.902 39.1094C119.22 39.4044 119.474 39.7955 119.663 40.2827C119.852 40.7699 119.946 41.3698 119.946 42.0824V42.5795H114.06V41.5653H118.753C118.753 41.1345 118.667 40.75 118.494 40.4119C118.325 40.0739 118.083 39.8071 117.769 39.6115C117.457 39.416 117.089 39.3182 116.665 39.3182C116.198 39.3182 115.793 39.4342 115.452 39.6662C115.114 39.8949 114.854 40.1932 114.671 40.5611C114.489 40.929 114.398 41.3234 114.398 41.7443V42.4205C114.398 42.9972 114.497 43.486 114.696 43.8871C114.898 44.2848 115.178 44.5881 115.536 44.7969C115.894 45.0024 116.31 45.1051 116.784 45.1051C117.092 45.1051 117.371 45.062 117.619 44.9759C117.871 44.8864 118.088 44.7538 118.271 44.5781C118.453 44.3991 118.594 44.1771 118.693 43.9119L119.827 44.2301C119.707 44.6146 119.507 44.9527 119.225 45.2443C118.943 45.5327 118.595 45.758 118.181 45.9205C117.767 46.0795 117.301 46.1591 116.784 46.1591ZM121.3 39.4574V38.3636H127.505V39.4574H124.999V46H123.826V39.4574H121.3ZM133.713 48.8636V38.3636H134.847V39.5767H134.986C135.072 39.4441 135.192 39.2751 135.344 39.0696C135.5 38.8608 135.722 38.6752 136.01 38.5128C136.302 38.3471 136.696 38.2642 137.194 38.2642C137.837 38.2642 138.403 38.425 138.894 38.7464C139.384 39.0679 139.767 39.5237 140.042 40.1136C140.317 40.7036 140.455 41.3996 140.455 42.2017C140.455 43.0104 140.317 43.7114 140.042 44.3047C139.767 44.8946 139.386 45.352 138.899 45.6768C138.412 45.9983 137.85 46.1591 137.213 46.1591C136.723 46.1591 136.33 46.0779 136.035 45.9155C135.74 45.7498 135.513 45.5625 135.354 45.3537C135.195 45.1416 135.072 44.9659 134.986 44.8267H134.887V48.8636H133.713ZM134.867 42.1818C134.867 42.7585 134.951 43.2673 135.12 43.7081C135.289 44.1456 135.536 44.4886 135.861 44.7372C136.186 44.9825 136.584 45.1051 137.054 45.1051C137.545 45.1051 137.954 44.9759 138.282 44.7173C138.614 44.4555 138.862 44.1042 139.028 43.6634C139.197 43.2192 139.282 42.7254 139.282 42.1818C139.282 41.6449 139.199 41.161 139.033 40.7301C138.871 40.2959 138.624 39.9529 138.292 39.701C137.964 39.4458 137.552 39.3182 137.054 39.3182C136.577 39.3182 136.176 39.4392 135.851 39.6811C135.526 39.9197 135.281 40.2545 135.115 40.6854C134.95 41.1129 134.867 41.6117 134.867 42.1818ZM144.772 46.179C144.288 46.179 143.849 46.0878 143.454 45.9055C143.06 45.7199 142.747 45.4531 142.515 45.1051C142.283 44.7538 142.167 44.3295 142.167 43.8324C142.167 43.3949 142.253 43.0402 142.425 42.7685C142.598 42.4934 142.828 42.2779 143.116 42.1222C143.405 41.9664 143.723 41.8504 144.071 41.7741C144.422 41.6946 144.775 41.6316 145.13 41.5852C145.594 41.5256 145.97 41.4808 146.258 41.451C146.55 41.4179 146.762 41.3632 146.895 41.2869C147.031 41.2107 147.099 41.0781 147.099 40.8892V40.8494C147.099 40.3589 146.964 39.9777 146.696 39.706C146.431 39.4342 146.028 39.2983 145.488 39.2983C144.928 39.2983 144.489 39.4209 144.17 39.6662C143.852 39.9115 143.628 40.1733 143.499 40.4517L142.386 40.054C142.584 39.59 142.85 39.2287 143.181 38.9702C143.516 38.7083 143.88 38.526 144.275 38.4233C144.672 38.3172 145.064 38.2642 145.448 38.2642C145.693 38.2642 145.975 38.294 146.293 38.3537C146.615 38.41 146.925 38.5277 147.223 38.7067C147.524 38.8857 147.775 39.1558 147.974 39.517C148.172 39.8783 148.272 40.3622 148.272 40.9688V46H147.099V44.9659H147.039C146.959 45.1316 146.827 45.3089 146.641 45.4979C146.456 45.6868 146.209 45.8475 145.9 45.9801C145.592 46.1127 145.216 46.179 144.772 46.179ZM144.951 45.125C145.415 45.125 145.806 45.0339 146.124 44.8516C146.446 44.6693 146.688 44.4339 146.85 44.1456C147.016 43.8572 147.099 43.554 147.099 43.2358V42.1619C147.049 42.2216 146.94 42.2763 146.77 42.326C146.605 42.3724 146.413 42.4138 146.194 42.4503C145.978 42.4834 145.768 42.5133 145.562 42.5398C145.36 42.563 145.196 42.5829 145.07 42.5994C144.765 42.6392 144.48 42.7038 144.215 42.7933C143.953 42.8795 143.741 43.0104 143.579 43.1861C143.42 43.3584 143.34 43.5937 143.34 43.892C143.34 44.2997 143.491 44.608 143.792 44.8168C144.097 45.0223 144.484 45.125 144.951 45.125ZM156.361 35.5L156.958 36.2159C156.726 36.4413 156.457 36.5987 156.152 36.6882C155.847 36.7777 155.503 36.8324 155.118 36.8523C154.734 36.8722 154.306 36.892 153.835 36.9119C153.305 36.9318 152.866 37.0611 152.518 37.2997C152.17 37.5384 151.901 37.883 151.713 38.3338C151.524 38.7846 151.403 39.3381 151.35 39.9943H151.449C151.708 39.517 152.066 39.1657 152.523 38.9403C152.98 38.715 153.471 38.6023 153.995 38.6023C154.591 38.6023 155.128 38.7415 155.605 39.0199C156.083 39.2983 156.46 39.7109 156.739 40.2578C157.017 40.8047 157.156 41.4792 157.156 42.2812C157.156 43.08 157.014 43.7694 156.729 44.3494C156.447 44.9295 156.051 45.3769 155.541 45.6918C155.034 46.0033 154.439 46.1591 153.756 46.1591C153.073 46.1591 152.475 45.9983 151.961 45.6768C151.447 45.352 151.048 44.8714 150.763 44.2351C150.478 43.5954 150.335 42.8049 150.335 41.8636V41.0483C150.335 39.348 150.624 38.0587 151.201 37.1804C151.781 36.3021 152.652 35.848 153.816 35.8182C154.227 35.8049 154.593 35.8016 154.914 35.8082C155.236 35.8149 155.516 35.8 155.754 35.7635C155.993 35.727 156.195 35.6392 156.361 35.5ZM153.756 45.1051C154.217 45.1051 154.613 44.9891 154.944 44.7571C155.279 44.5251 155.536 44.1986 155.715 43.7777C155.894 43.3535 155.983 42.8546 155.983 42.2812C155.983 41.7244 155.892 41.2505 155.71 40.8594C155.531 40.4683 155.274 40.17 154.939 39.9645C154.604 39.759 154.203 39.6562 153.736 39.6562C153.395 39.6562 153.088 39.7143 152.816 39.8303C152.544 39.9463 152.312 40.117 152.12 40.3423C151.928 40.5677 151.779 40.8428 151.673 41.1676C151.57 41.4924 151.515 41.8636 151.509 42.2812C151.509 43.1364 151.709 43.8208 152.11 44.3345C152.511 44.8482 153.06 45.1051 153.756 45.1051ZM162.333 46.1591C161.644 46.1591 161.039 45.995 160.519 45.6669C160.002 45.3388 159.597 44.8797 159.306 44.2898C159.017 43.6998 158.873 43.0104 158.873 42.2216C158.873 41.4261 159.017 40.7318 159.306 40.1385C159.597 39.5452 160.002 39.0845 160.519 38.7564C161.039 38.4283 161.644 38.2642 162.333 38.2642C163.023 38.2642 163.626 38.4283 164.143 38.7564C164.664 39.0845 165.068 39.5452 165.356 40.1385C165.648 40.7318 165.794 41.4261 165.794 42.2216C165.794 43.0104 165.648 43.6998 165.356 44.2898C165.068 44.8797 164.664 45.3388 164.143 45.6669C163.626 45.995 163.023 46.1591 162.333 46.1591ZM162.333 45.1051C162.857 45.1051 163.288 44.9709 163.626 44.7024C163.964 44.4339 164.214 44.081 164.377 43.6435C164.539 43.206 164.62 42.732 164.62 42.2216C164.62 41.7112 164.539 41.2356 164.377 40.7947C164.214 40.3539 163.964 39.9976 163.626 39.7259C163.288 39.4541 162.857 39.3182 162.333 39.3182C161.81 39.3182 161.379 39.4541 161.041 39.7259C160.703 39.9976 160.453 40.3539 160.29 40.7947C160.128 41.2356 160.047 41.7112 160.047 42.2216C160.047 42.732 160.128 43.206 160.29 43.6435C160.453 44.081 160.703 44.4339 161.041 44.7024C161.379 44.9709 161.81 45.1051 162.333 45.1051ZM166.867 39.4574V38.3636H173.071V39.4574H170.566V46H169.392V39.4574H166.867ZM175.818 48.8636C175.62 48.8636 175.442 48.8471 175.286 48.8139C175.131 48.7841 175.023 48.7543 174.963 48.7244L175.262 47.6903C175.547 47.7633 175.798 47.7898 176.017 47.7699C176.236 47.75 176.43 47.6522 176.599 47.4766C176.771 47.3042 176.929 47.0241 177.071 46.6364L177.29 46.0398L174.466 38.3636H175.739L177.847 44.4489H177.926L180.034 38.3636H181.307L178.066 47.1136C177.92 47.508 177.739 47.8345 177.524 48.093C177.308 48.3549 177.058 48.5488 176.773 48.6747C176.491 48.8007 176.173 48.8636 175.818 48.8636Z" fill="white"/>
</svg>
