<svg width="260" height="81" viewBox="0 0 260 81" fill="none" xmlns="http://www.w3.org/2000/svg">
<path d="M18.1469 12.2031H24.7589V38.0759C24.7469 40.4476 24.2438 42.4899 23.2496 44.2027C22.2554 45.9036 20.866 47.2153 19.0812 48.1376C17.3084 49.0479 15.2422 49.5031 12.8825 49.5031C10.7264 49.5031 8.78598 49.1198 7.06112 48.3532C5.34825 47.5746 3.98873 46.4247 2.98256 44.9035C1.9764 43.3822 1.47331 41.4897 1.47331 39.2258H8.10322C8.1152 40.22 8.33081 41.0764 8.75005 41.7951C9.18126 42.5138 9.77418 43.0648 10.5288 43.4481C11.2834 43.8314 12.1518 44.0231 13.1341 44.0231C14.2001 44.0231 15.1045 43.8015 15.8471 43.3583C16.5898 42.9031 17.1527 42.2323 17.536 41.346C17.9313 40.4596 18.1349 39.3696 18.1469 38.0759V12.2031ZM43.7412 49.539C41.0462 49.539 38.7104 48.9461 36.734 47.7603C34.7576 46.5744 33.2244 44.9154 32.1344 42.7833C31.0564 40.6512 30.5174 38.1598 30.5174 35.309C30.5174 32.4582 31.0564 29.9607 32.1344 27.8166C33.2244 25.6725 34.7576 24.0076 36.734 22.8217C38.7104 21.6359 41.0462 21.043 43.7412 21.043C46.4363 21.043 48.7721 21.6359 50.7485 22.8217C52.7249 24.0076 54.2521 25.6725 55.3301 27.8166C56.4201 29.9607 56.9651 32.4582 56.9651 35.309C56.9651 38.1598 56.4201 40.6512 55.3301 42.7833C54.2521 44.9154 52.7249 46.5744 50.7485 47.7603C48.7721 48.9461 46.4363 49.539 43.7412 49.539ZM43.7772 44.3285C45.2385 44.3285 46.4603 43.9272 47.4425 43.1247C48.4247 42.3102 49.1554 41.2202 49.6345 39.8547C50.1256 38.4892 50.3712 36.9679 50.3712 35.291C50.3712 33.6021 50.1256 32.0749 49.6345 30.7094C49.1554 29.3319 48.4247 28.2359 47.4425 27.4213C46.4603 26.6068 45.2385 26.1996 43.7772 26.1996C42.2799 26.1996 41.0342 26.6068 40.04 27.4213C39.0578 28.2359 38.3211 29.3319 37.83 30.7094C37.3509 32.0749 37.1113 33.6021 37.1113 35.291C37.1113 36.9679 37.3509 38.4892 37.83 39.8547C38.3211 41.2202 39.0578 42.3102 40.04 43.1247C41.0342 43.9272 42.2799 44.3285 43.7772 44.3285ZM62.773 49V12.2031H69.2772V25.966H69.5467C69.8821 25.2952 70.3552 24.5825 70.9661 23.8279C71.577 23.0613 72.4035 22.4085 73.4456 21.8695C74.4877 21.3185 75.8173 21.043 77.4343 21.043C79.5664 21.043 81.4889 21.588 83.2018 22.678C84.9266 23.756 86.2922 25.3551 87.2983 27.4752C88.3165 29.5834 88.8255 32.1707 88.8255 35.2371C88.8255 38.2676 88.3284 40.8429 87.3343 42.963C86.3401 45.0831 84.9865 46.7002 83.2737 47.8142C81.5608 48.9281 79.6203 49.4851 77.4523 49.4851C75.8712 49.4851 74.5595 49.2216 73.5174 48.6946C72.4753 48.1675 71.6369 47.5327 71.002 46.79C70.3792 46.0354 69.8941 45.3227 69.5467 44.6519H69.1694V49H62.773ZM69.1514 35.2012C69.1514 36.9859 69.403 38.5491 69.906 39.8906C70.4211 41.2322 71.1578 42.2803 72.116 43.0349C73.0862 43.7775 74.2601 44.1488 75.6376 44.1488C77.075 44.1488 78.2788 43.7655 79.249 42.9989C80.2192 42.2204 80.9499 41.1603 81.441 39.8187C81.9441 38.4652 82.1956 36.926 82.1956 35.2012C82.1956 33.4883 81.9501 31.9671 81.459 30.6375C80.9679 29.3079 80.2372 28.2658 79.267 27.5112C78.2967 26.7566 77.0869 26.3792 75.6376 26.3792C74.2481 26.3792 73.0683 26.7446 72.098 27.4752C71.1278 28.2059 70.3911 29.23 69.8881 30.5476C69.397 31.8652 69.1514 33.4164 69.1514 35.2012Z" fill="#27A746"/>
<path d="M94.6424 49V12.2031H101.308V27.7807H118.359V12.2031H125.043V49H118.359V33.3685H101.308V49H94.6424ZM149.595 37.3932V21.4023H156.099V49H149.793V44.0949H149.505C148.883 45.6401 147.858 46.9038 146.433 47.886C145.02 48.8682 143.277 49.3593 141.205 49.3593C139.396 49.3593 137.797 48.9581 136.407 48.1555C135.03 47.341 133.952 46.1612 133.173 44.616C132.395 43.0588 132.005 41.1783 132.005 38.9743V21.4023H138.509V37.9681C138.509 39.7169 138.989 41.1064 139.947 42.1365C140.905 43.1666 142.163 43.6817 143.72 43.6817C144.678 43.6817 145.606 43.4481 146.505 42.981C147.403 42.5138 148.14 41.8191 148.715 40.8968C149.302 39.9625 149.595 38.7946 149.595 37.3932ZM169.292 32.8295V49H162.788V21.4023H169.004V26.0918H169.328C169.963 24.5466 170.975 23.3188 172.364 22.4085C173.766 21.4981 175.497 21.043 177.557 21.043C179.461 21.043 181.12 21.4502 182.534 22.2647C183.959 23.0793 185.061 24.2591 185.84 25.8043C186.63 27.3495 187.019 29.2241 187.008 31.428V49H180.503V32.4342C180.503 30.5896 180.024 29.1462 179.066 28.1041C178.12 27.062 176.808 26.541 175.131 26.541C173.993 26.541 172.981 26.7925 172.095 27.2956C171.22 27.7867 170.532 28.4994 170.028 29.4337C169.537 30.368 169.292 31.4999 169.292 32.8295ZM207.4 21.4023V26.4331H191.535V21.4023H207.4ZM195.452 14.7904H201.956V40.6991C201.956 41.5735 202.088 42.2443 202.352 42.7115C202.627 43.1666 202.986 43.4781 203.43 43.6458C203.873 43.8135 204.364 43.8973 204.903 43.8973C205.31 43.8973 205.681 43.8674 206.017 43.8075C206.364 43.7476 206.628 43.6937 206.807 43.6458L207.903 48.7305C207.556 48.8503 207.059 48.982 206.412 49.1258C205.777 49.2695 204.999 49.3534 204.076 49.3773C202.447 49.4252 200.98 49.1797 199.674 48.6407C198.369 48.0897 197.333 47.2392 196.566 46.0893C195.811 44.9394 195.44 43.502 195.452 41.7772V14.7904ZM224.761 49.539C221.994 49.539 219.605 48.9641 217.592 47.8142C215.592 46.6523 214.053 45.0113 212.975 42.8911C211.897 40.759 211.358 38.2496 211.358 35.3629C211.358 32.524 211.897 30.0326 212.975 27.8885C214.065 25.7324 215.586 24.0555 217.538 22.8577C219.491 21.6479 221.785 21.043 224.42 21.043C226.121 21.043 227.726 21.3185 229.235 21.8695C230.756 22.4085 232.098 23.247 233.26 24.3849C234.434 25.5228 235.356 26.9722 236.027 28.733C236.697 30.4818 237.033 32.566 237.033 34.9856V36.9799H214.412V32.5959H230.798C230.786 31.3502 230.517 30.2422 229.99 29.272C229.463 28.2898 228.726 27.5172 227.78 26.9542C226.845 26.3912 225.755 26.1097 224.51 26.1097C223.18 26.1097 222.012 26.4331 221.006 27.08C220 27.7148 219.215 28.5533 218.652 29.5954C218.101 30.6255 217.82 31.7574 217.808 32.9912V36.8182C217.808 38.4233 218.101 39.8008 218.688 40.9507C219.275 42.0886 220.096 42.963 221.15 43.5739C222.204 44.1728 223.438 44.4723 224.851 44.4723C225.797 44.4723 226.654 44.3405 227.42 44.077C228.187 43.8015 228.852 43.4002 229.415 42.8732C229.978 42.3461 230.403 41.6933 230.69 40.9147L236.763 41.5975C236.38 43.2026 235.649 44.604 234.571 45.8018C233.505 46.9877 232.14 47.91 230.475 48.5688C228.81 49.2156 226.905 49.539 224.761 49.539ZM242.535 49V21.4023H248.842V26.0019H249.129C249.632 24.4088 250.495 23.1811 251.717 22.3187C252.95 21.4442 254.358 21.007 255.939 21.007C256.298 21.007 256.699 21.025 257.143 21.0609C257.598 21.0849 257.975 21.1268 258.275 21.1867V27.1698C257.999 27.074 257.562 26.9901 256.963 26.9183C256.376 26.8344 255.807 26.7925 255.256 26.7925C254.07 26.7925 253.004 27.05 252.058 27.5651C251.124 28.0682 250.387 28.7689 249.848 29.6673C249.309 30.5656 249.039 31.6017 249.039 32.7756V49H242.535Z" fill="white"/>
<path d="M2.52512 79.4473V74.2252H3.48785C3.81848 73.9238 4.12967 73.4983 4.4214 72.9489C4.718 72.3946 4.9684 71.6555 5.17262 70.7317C5.38169 69.803 5.52027 68.6239 5.58834 67.1944L5.90925 60.8929H14.778V74.2252H16.4992V79.4181H14.778V75.8298H4.24636V79.4473H2.52512ZM5.64669 74.2252H13.0568V62.4975H7.54296L7.30958 67.1944C7.25123 68.2836 7.14912 69.2706 7.00326 70.1555C6.85739 71.0356 6.67019 71.816 6.44167 72.4967C6.21314 73.1726 5.94815 73.7487 5.64669 74.2252ZM18.0071 75.8298V74.2252H18.4156C18.7511 74.2252 19.0306 74.1596 19.2543 74.0283C19.478 73.8922 19.6579 73.6563 19.794 73.3209C19.935 72.9805 20.042 72.5089 20.1149 71.9059C20.1927 71.2982 20.2486 70.5251 20.2827 69.5866L20.4869 64.6271H27.9553V75.8298H26.2341V66.2317H22.1206L21.9456 70.2285C21.9067 71.1474 21.824 71.957 21.6976 72.6572C21.576 73.3525 21.3888 73.9359 21.136 74.4076C20.888 74.8792 20.5574 75.2341 20.1441 75.4724C19.7308 75.7106 19.213 75.8298 18.5906 75.8298H18.0071ZM37.8524 75.8298V66.2025H34.8767C34.2057 66.2025 33.6782 66.3581 33.294 66.6693C32.9099 66.9805 32.7179 67.4084 32.7179 67.9529C32.7179 68.4878 32.8905 68.9084 33.2357 69.2147C33.5858 69.521 34.0647 69.6742 34.6725 69.6742H38.29V71.2787H34.6725C33.914 71.2787 33.26 71.145 32.7106 70.8776C32.1611 70.6101 31.7381 70.2285 31.4415 69.7325C31.1449 69.2317 30.9966 68.6385 30.9966 67.9529C30.9966 67.2625 31.1522 66.6693 31.4634 66.1733C31.7746 65.6774 32.2195 65.2957 32.7981 65.0283C33.3816 64.7609 34.0744 64.6271 34.8767 64.6271H39.4861V75.8298H37.8524ZM30.384 75.8298L33.5639 70.2576H35.431L32.2511 75.8298H30.384ZM47.7805 66.2317V64.6271H56.8826V66.2317H53.2068V75.8298H51.4855V66.2317H47.7805ZM63.5087 76.0632C62.4293 76.0632 61.4981 75.8249 60.7153 75.3484C59.9374 74.867 59.3369 74.1961 58.9139 73.3354C58.4957 72.47 58.2866 71.4635 58.2866 70.316C58.2866 69.1685 58.4957 68.1571 58.9139 67.2819C59.3369 66.4019 59.9252 65.7163 60.6788 65.2252C61.4374 64.7293 62.3223 64.4813 63.3336 64.4813C63.9171 64.4813 64.4933 64.5785 65.0622 64.773C65.631 64.9675 66.1489 65.2836 66.6157 65.7212C67.0824 66.1539 67.4544 66.7276 67.7315 67.4424C68.0087 68.1571 68.1473 69.0372 68.1473 70.0826V70.8119H59.5119V69.3241H66.3969C66.3969 68.692 66.2704 68.128 66.0176 67.632C65.7696 67.1361 65.4147 66.7447 64.9528 66.4578C64.4957 66.1709 63.956 66.0275 63.3336 66.0275C62.6481 66.0275 62.0549 66.1977 61.5541 66.538C61.0581 66.8735 60.6764 67.3111 60.409 67.8508C60.1416 68.3905 60.0079 68.9691 60.0079 69.5866V70.5785C60.0079 71.4246 60.1537 72.1418 60.4455 72.7301C60.7421 73.3136 61.1529 73.7585 61.678 74.0648C62.2032 74.3662 62.8134 74.517 63.5087 74.517C63.9609 74.517 64.3693 74.4538 64.734 74.3273C65.1035 74.1961 65.422 74.0016 65.6894 73.7439C65.9568 73.4813 66.1635 73.1555 66.3093 72.7666L67.9722 73.2333C67.7972 73.7974 67.503 74.2933 67.0897 74.7212C66.6764 75.1442 66.1659 75.4748 65.5581 75.7131C64.9503 75.9465 64.2672 76.0632 63.5087 76.0632ZM71.7484 64.6271L74.4323 69.2074L77.1163 64.6271H79.1001L75.4826 70.2285L79.1001 75.8298H77.1163L74.4323 71.4829L71.7484 75.8298H69.7646L73.3237 70.2285L69.7646 64.6271H71.7484ZM84.1234 73.7876L84.0067 74.5753C83.924 75.1296 83.7976 75.7228 83.6274 76.3549C83.4621 76.987 83.2895 77.5826 83.1096 78.1418C82.9297 78.7009 82.7814 79.1458 82.6647 79.4765H81.3519C81.4151 79.1653 81.4978 78.7544 81.5999 78.2439C81.702 77.7333 81.8041 77.162 81.9062 76.5299C82.0132 75.9027 82.1007 75.2609 82.1688 74.6045L82.2563 73.7876H84.1234ZM93.0888 75.8298V64.6271H94.81V69.4991H95.9478L99.9737 64.6271H102.191L97.669 70.0242L102.249 75.8298H100.032L96.3562 71.1037H94.81V75.8298H93.0888ZM103.478 66.2317V64.6271H112.58V66.2317H108.904V75.8298H107.183V66.2317H103.478ZM119.06 76.0632C118.049 76.0632 117.162 75.8225 116.398 75.3411C115.64 74.8598 115.047 74.1863 114.619 73.3209C114.196 72.4554 113.984 71.444 113.984 70.2868C113.984 69.1199 114.196 68.1012 114.619 67.2309C115.047 66.3605 115.64 65.6847 116.398 65.2033C117.162 64.722 118.049 64.4813 119.06 64.4813C120.072 64.4813 120.957 64.722 121.715 65.2033C122.479 65.6847 123.072 66.3605 123.495 67.2309C123.923 68.1012 124.137 69.1199 124.137 70.2868C124.137 71.444 123.923 72.4554 123.495 73.3209C123.072 74.1863 122.479 74.8598 121.715 75.3411C120.957 75.8225 120.072 76.0632 119.06 76.0632ZM119.06 74.517C119.829 74.517 120.461 74.32 120.957 73.9262C121.453 73.5324 121.82 73.0145 122.058 72.3727C122.296 71.7309 122.415 71.0356 122.415 70.2868C122.415 69.538 122.296 68.8403 122.058 68.1936C121.82 67.5469 121.453 67.0242 120.957 66.6255C120.461 66.2268 119.829 66.0275 119.06 66.0275C118.292 66.0275 117.66 66.2268 117.164 66.6255C116.668 67.0242 116.301 67.5469 116.063 68.1936C115.825 68.8403 115.706 69.538 115.706 70.2868C115.706 71.0356 115.825 71.7309 116.063 72.3727C116.301 73.0145 116.668 73.5324 117.164 73.9262C117.66 74.32 118.292 74.517 119.06 74.517ZM134.262 73.2917L139.659 64.6271H141.643V75.8298H139.921V67.1652L134.553 75.8298H132.54V64.6271H134.262V73.2917ZM160.082 74.2252L159.878 79.0389H158.098V75.8298H156.64V74.2252H160.082ZM144.795 64.6271H146.516V74.2252H150.747V64.6271H152.468V74.2252H156.698V64.6271H158.419V75.8298H144.795V64.6271ZM167.162 76.0632C166.083 76.0632 165.152 75.8249 164.369 75.3484C163.591 74.867 162.99 74.1961 162.567 73.3354C162.149 72.47 161.94 71.4635 161.94 70.316C161.94 69.1685 162.149 68.1571 162.567 67.2819C162.99 66.4019 163.579 65.7163 164.332 65.2252C165.091 64.7293 165.976 64.4813 166.987 64.4813C167.571 64.4813 168.147 64.5785 168.716 64.773C169.284 64.9675 169.802 65.2836 170.269 65.7212C170.736 66.1539 171.108 66.7276 171.385 67.4424C171.662 68.1571 171.801 69.0372 171.801 70.0826V70.8119H163.165V69.3241H170.05C170.05 68.692 169.924 68.128 169.671 67.632C169.423 67.1361 169.068 66.7447 168.606 66.4578C168.149 66.1709 167.609 66.0275 166.987 66.0275C166.302 66.0275 165.708 66.1977 165.207 66.538C164.712 66.8735 164.33 67.3111 164.062 67.8508C163.795 68.3905 163.661 68.9691 163.661 69.5866V70.5785C163.661 71.4246 163.807 72.1418 164.099 72.7301C164.395 73.3136 164.806 73.7585 165.331 74.0648C165.857 74.3662 166.467 74.517 167.162 74.517C167.614 74.517 168.023 74.4538 168.387 74.3273C168.757 74.1961 169.075 74.0016 169.343 73.7439C169.61 73.4813 169.817 73.1555 169.963 72.7666L171.626 73.2333C171.451 73.7974 171.156 74.2933 170.743 74.7212C170.33 75.1442 169.819 75.4748 169.212 75.7131C168.604 75.9465 167.921 76.0632 167.162 76.0632ZM173.376 66.2317V64.6271H182.478V66.2317H178.802V75.8298H177.081V66.2317H173.376ZM190.765 80.0308V64.6271H192.428V66.4067H192.632C192.759 66.2122 192.934 65.9643 193.158 65.6628C193.386 65.3565 193.712 65.0842 194.135 64.846C194.563 64.6028 195.141 64.4813 195.871 64.4813C196.814 64.4813 197.645 64.7171 198.365 65.1887C199.085 65.6604 199.646 66.3289 200.05 67.1944C200.453 68.0599 200.655 69.081 200.655 70.2576C200.655 71.444 200.453 72.4724 200.05 73.3427C199.646 74.2082 199.087 74.8792 198.372 75.3557C197.658 75.8273 196.833 76.0632 195.9 76.0632C195.18 76.0632 194.604 75.944 194.171 75.7058C193.739 75.4627 193.405 75.188 193.172 74.8816C192.939 74.5705 192.759 74.3128 192.632 74.1085H192.487V80.0308H190.765ZM192.457 70.2285C192.457 71.0745 192.581 71.8208 192.829 72.4675C193.077 73.1093 193.44 73.6126 193.916 73.9773C194.393 74.3371 194.976 74.517 195.666 74.517C196.386 74.517 196.987 74.3273 197.468 73.9481C197.954 73.564 198.319 73.0486 198.562 72.4019C198.81 71.7503 198.934 71.0259 198.934 70.2285C198.934 69.4408 198.812 68.7309 198.569 68.0988C198.331 67.4618 197.969 66.9586 197.482 66.5891C197.001 66.2147 196.396 66.0275 195.666 66.0275C194.966 66.0275 194.378 66.2049 193.901 66.5599C193.425 66.91 193.065 67.4011 192.822 68.0332C192.579 68.6604 192.457 69.3922 192.457 70.2285ZM206.577 76.0923C205.867 76.0923 205.223 75.9586 204.645 75.6912C204.066 75.4189 203.607 75.0275 203.266 74.517C202.926 74.0016 202.756 73.3792 202.756 72.6499C202.756 72.008 202.882 71.4878 203.135 71.0891C203.388 70.6855 203.726 70.3695 204.149 70.1409C204.572 69.9124 205.038 69.7422 205.549 69.6304C206.064 69.5137 206.582 69.4213 207.102 69.3533C207.783 69.2657 208.335 69.2001 208.758 69.1563C209.186 69.1077 209.497 69.0275 209.692 68.9157C209.891 68.8038 209.991 68.6093 209.991 68.3322V68.2738C209.991 67.5542 209.794 66.9951 209.4 66.5964C209.011 66.1977 208.42 65.9983 207.628 65.9983C206.806 65.9983 206.162 66.1782 205.695 66.538C205.228 66.8978 204.9 67.2819 204.71 67.6904L203.077 67.1069C203.368 66.4262 203.757 65.8962 204.243 65.5169C204.735 65.1328 205.269 64.8654 205.848 64.7147C206.431 64.5591 207.005 64.4813 207.569 64.4813C207.929 64.4813 208.342 64.525 208.809 64.6126C209.281 64.6952 209.735 64.8678 210.173 65.1304C210.615 65.393 210.983 65.7892 211.274 66.3192C211.566 66.8492 211.712 67.5591 211.712 68.4489V75.8298H209.991V74.3128H209.903C209.786 74.5559 209.592 74.816 209.32 75.0931C209.047 75.3703 208.685 75.6061 208.233 75.8006C207.781 75.9951 207.229 76.0923 206.577 76.0923ZM206.84 74.5461C207.521 74.5461 208.094 74.4124 208.561 74.145C209.033 73.8776 209.388 73.5324 209.626 73.1093C209.869 72.6863 209.991 72.2414 209.991 71.7747V70.1993C209.918 70.2868 209.757 70.367 209.509 70.44C209.266 70.508 208.984 70.5688 208.663 70.6223C208.347 70.6709 208.038 70.7147 207.737 70.7536C207.44 70.7876 207.2 70.8168 207.015 70.8411C206.568 70.8995 206.149 70.9943 205.76 71.1255C205.376 71.252 205.065 71.444 204.827 71.7017C204.594 71.9546 204.477 72.2998 204.477 72.7374C204.477 73.3354 204.698 73.7876 205.141 74.0939C205.588 74.3954 206.154 74.5461 206.84 74.5461ZM223.168 60.4262L224.043 61.4764C223.703 61.807 223.309 62.038 222.862 62.1693C222.414 62.3006 221.909 62.3808 221.345 62.41C220.781 62.4391 220.153 62.4683 219.463 62.4975C218.685 62.5267 218.041 62.7163 217.53 63.0664C217.02 63.4164 216.626 63.9221 216.349 64.5834C216.071 65.2447 215.894 66.0567 215.816 67.0194H215.962C216.341 66.3192 216.866 65.8038 217.537 65.4732C218.208 65.1425 218.928 64.9772 219.696 64.9772C220.571 64.9772 221.359 65.1814 222.059 65.5899C222.76 65.9983 223.314 66.6037 223.722 67.4059C224.131 68.2082 224.335 69.1977 224.335 70.3743C224.335 71.5461 224.126 72.5575 223.708 73.4084C223.294 74.2593 222.713 74.9157 221.965 75.3776C221.221 75.8346 220.348 76.0632 219.346 76.0632C218.345 76.0632 217.467 75.8273 216.713 75.3557C215.96 74.8792 215.374 74.1742 214.956 73.2406C214.537 72.3022 214.328 71.1426 214.328 69.7617V68.5656C214.328 66.0712 214.751 64.1798 215.597 62.8913C216.448 61.6028 217.727 60.9367 219.434 60.8929C220.037 60.8735 220.574 60.8686 221.046 60.8784C221.517 60.8881 221.928 60.8662 222.278 60.8127C222.628 60.7592 222.925 60.6304 223.168 60.4262ZM219.346 74.517C220.022 74.517 220.603 74.3468 221.089 74.0064C221.58 73.6661 221.957 73.1871 222.22 72.5696C222.482 71.9473 222.614 71.2155 222.614 70.3743C222.614 69.5575 222.48 68.8622 222.213 68.2884C221.95 67.7147 221.573 67.2771 221.082 66.9756C220.591 66.6742 220.003 66.5234 219.317 66.5234C218.816 66.5234 218.366 66.6085 217.968 66.7787C217.569 66.9489 217.229 67.1993 216.947 67.5299C216.665 67.8605 216.446 68.2641 216.29 68.7406C216.14 69.2171 216.059 69.7617 216.05 70.3743C216.05 71.6288 216.344 72.6328 216.932 73.3865C217.52 74.1401 218.325 74.517 219.346 74.517ZM231.519 76.0632C230.508 76.0632 229.62 75.8225 228.857 75.3411C228.098 74.8598 227.505 74.1863 227.077 73.3209C226.654 72.4554 226.443 71.444 226.443 70.2868C226.443 69.1199 226.654 68.1012 227.077 67.2309C227.505 66.3605 228.098 65.6847 228.857 65.2033C229.62 64.722 230.508 64.4813 231.519 64.4813C232.53 64.4813 233.415 64.722 234.174 65.2033C234.937 65.6847 235.53 66.3605 235.953 67.2309C236.381 68.1012 236.595 69.1199 236.595 70.2868C236.595 71.444 236.381 72.4554 235.953 73.3209C235.53 74.1863 234.937 74.8598 234.174 75.3411C233.415 75.8225 232.53 76.0632 231.519 76.0632ZM231.519 74.517C232.287 74.517 232.919 74.32 233.415 73.9262C233.911 73.5324 234.278 73.0145 234.516 72.3727C234.755 71.7309 234.874 71.0356 234.874 70.2868C234.874 69.538 234.755 68.8403 234.516 68.1936C234.278 67.5469 233.911 67.0242 233.415 66.6255C232.919 66.2268 232.287 66.0275 231.519 66.0275C230.751 66.0275 230.119 66.2268 229.623 66.6255C229.127 67.0242 228.76 67.5469 228.521 68.1936C228.283 68.8403 228.164 69.538 228.164 70.2868C228.164 71.0356 228.283 71.7309 228.521 72.3727C228.76 73.0145 229.127 73.5324 229.623 73.9262C230.119 74.32 230.751 74.517 231.519 74.517ZM237.758 66.2317V64.6271H246.86V66.2317H243.185V75.8298H241.463V66.2317H237.758ZM250.48 80.0308C250.188 80.0308 249.928 80.0064 249.699 79.9578C249.471 79.9141 249.313 79.8703 249.225 79.8265L249.663 78.3095C250.081 78.4165 250.451 78.4554 250.772 78.4262C251.092 78.397 251.377 78.2536 251.625 77.9959C251.878 77.7431 252.109 77.3322 252.318 76.7633L252.639 75.8881L248.496 64.6271H250.363L253.455 73.5542H253.572L256.665 64.6271H258.532L253.776 77.4635C253.562 78.0421 253.297 78.521 252.981 78.9003C252.665 79.2844 252.298 79.5688 251.88 79.7536C251.467 79.9384 251 80.0308 250.48 80.0308Z" fill="white"/>
</svg>
