<svg width="151" height="47" viewBox="0 0 151 47" fill="none" xmlns="http://www.w3.org/2000/svg">
<path d="M10.4013 6.90909H14.1911V21.7386C14.1842 23.098 13.8958 24.2686 13.326 25.2504C12.7562 26.2253 11.9598 26.977 10.9368 27.5057C9.92069 28.0275 8.73639 28.2884 7.38388 28.2884C6.14808 28.2884 5.03587 28.0687 4.04723 27.6293C3.06546 27.183 2.28622 26.5239 1.70952 25.652C1.13281 24.7801 0.84446 23.6953 0.84446 22.3977H4.64453C4.6514 22.9676 4.77498 23.4585 5.01527 23.8704C5.26243 24.2823 5.60227 24.5981 6.0348 24.8178C6.46733 25.0375 6.96508 25.1474 7.52805 25.1474C8.13909 25.1474 8.65743 25.0204 9.0831 24.7663C9.50876 24.5054 9.83144 24.121 10.0511 23.6129C10.2777 23.1049 10.3944 22.4801 10.4013 21.7386V6.90909ZM25.0712 28.3089C23.5265 28.3089 22.1877 27.9691 21.0549 27.2894C19.9221 26.6097 19.0433 25.6589 18.4185 24.4368C17.8006 23.2147 17.4917 21.7867 17.4917 20.1527C17.4917 18.5187 17.8006 17.0872 18.4185 15.8583C19.0433 14.6294 19.9221 13.6751 21.0549 12.9954C22.1877 12.3157 23.5265 11.9759 25.0712 11.9759C26.6159 11.9759 27.9547 12.3157 29.0875 12.9954C30.2203 13.6751 31.0957 14.6294 31.7136 15.8583C32.3384 17.0872 32.6507 18.5187 32.6507 20.1527C32.6507 21.7867 32.3384 23.2147 31.7136 24.4368C31.0957 25.6589 30.2203 26.6097 29.0875 27.2894C27.9547 27.9691 26.6159 28.3089 25.0712 28.3089ZM25.0918 25.3224C25.9294 25.3224 26.6297 25.0924 27.1926 24.6325C27.7556 24.1656 28.1744 23.5408 28.449 22.7582C28.7305 21.9755 28.8713 21.1036 28.8713 20.1424C28.8713 19.1744 28.7305 18.299 28.449 17.5163C28.1744 16.7268 27.7556 16.0986 27.1926 15.6317C26.6297 15.1649 25.9294 14.9315 25.0918 14.9315C24.2336 14.9315 23.5196 15.1649 22.9498 15.6317C22.3868 16.0986 21.9645 16.7268 21.6831 17.5163C21.4084 18.299 21.2711 19.1744 21.2711 20.1424C21.2711 21.1036 21.4084 21.9755 21.6831 22.7582C21.9645 23.5408 22.3868 24.1656 22.9498 24.6325C23.5196 25.0924 24.2336 25.3224 25.0918 25.3224ZM35.9797 28V6.90909H39.7077V14.7976H39.8621C40.0544 14.4131 40.3256 14.0046 40.6757 13.5721C41.0258 13.1327 41.4996 12.7585 42.0969 12.4496C42.6942 12.1338 43.4562 11.9759 44.3831 11.9759C45.6051 11.9759 46.7071 12.2882 47.6888 12.913C48.6775 13.5309 49.4601 14.4474 50.0368 15.6626C50.6204 16.871 50.9122 18.3539 50.9122 20.1115C50.9122 21.8485 50.6273 23.3246 50.0574 24.5398C49.4876 25.755 48.7118 26.6818 47.73 27.3203C46.7483 27.9588 45.636 28.2781 44.3934 28.2781C43.4871 28.2781 42.7354 28.127 42.1381 27.8249C41.5407 27.5228 41.0602 27.159 40.6963 26.7333C40.3393 26.3008 40.0612 25.8923 39.8621 25.5078H39.6459V28H35.9797ZM39.6356 20.0909C39.6356 21.1139 39.7797 22.0098 40.0681 22.7788C40.3633 23.5477 40.7855 24.1484 41.3348 24.581C41.8909 25.0066 42.5637 25.2195 43.3532 25.2195C44.1771 25.2195 44.8671 24.9998 45.4232 24.5604C45.9793 24.1141 46.3981 23.5065 46.6796 22.7376C46.968 21.9618 47.1121 21.0795 47.1121 20.0909C47.1121 19.1091 46.9714 18.2372 46.6899 17.4751C46.4084 16.7131 45.9896 16.1158 45.4335 15.6832C44.8774 15.2507 44.184 15.0344 43.3532 15.0344C42.5568 15.0344 41.8806 15.2438 41.3245 15.6626C40.7684 16.0814 40.3461 16.6684 40.0578 17.4237C39.7763 18.1789 39.6356 19.0679 39.6356 20.0909Z" fill="#27A746"/>
<path d="M54.2463 28V6.90909H58.0669V15.8377H67.84V6.90909H71.671V28H67.84V19.0405H58.0669V28H54.2463ZM85.7436 21.3473V12.1818H89.4716V28H85.8569V25.1886H85.6921C85.3351 26.0742 84.7481 26.7985 83.9311 27.3615C83.121 27.9245 82.122 28.206 80.9343 28.206C79.8976 28.206 78.9811 27.976 78.1847 27.516C77.3951 27.0491 76.7772 26.3729 76.331 25.4872C75.8847 24.5947 75.6616 23.5168 75.6616 22.2536V12.1818H79.3896V21.6768C79.3896 22.6792 79.6642 23.4756 80.2134 24.0661C80.7627 24.6565 81.4835 24.9517 82.3761 24.9517C82.9253 24.9517 83.4574 24.8178 83.9723 24.5501C84.4872 24.2823 84.9094 23.8841 85.239 23.3555C85.5754 22.82 85.7436 22.1506 85.7436 21.3473ZM97.0331 18.7315V28H93.3051V12.1818H96.8683V14.8697H97.0537C97.4176 13.984 97.9977 13.2803 98.7941 12.7585C99.5974 12.2367 100.589 11.9759 101.77 11.9759C102.862 11.9759 103.813 12.2093 104.623 12.6761C105.44 13.143 106.072 13.8192 106.518 14.7049C106.971 15.5906 107.194 16.665 107.187 17.9283V28H103.459V18.505C103.459 17.4477 103.185 16.6204 102.635 16.0231C102.093 15.4258 101.341 15.1271 100.38 15.1271C99.7278 15.1271 99.1477 15.2713 98.6396 15.5597C98.1385 15.8411 97.7437 16.2496 97.4553 16.7852C97.1739 17.3207 97.0331 17.9695 97.0331 18.7315ZM118.876 12.1818V15.0653H109.782V12.1818H118.876ZM112.027 8.39205H115.755V23.2422C115.755 23.7434 115.831 24.1278 115.982 24.3956C116.14 24.6565 116.346 24.835 116.6 24.9311C116.854 25.0272 117.135 25.0753 117.444 25.0753C117.678 25.0753 117.891 25.0581 118.083 25.0238C118.282 24.9895 118.433 24.9586 118.536 24.9311L119.164 27.8455C118.965 27.9142 118.68 27.9897 118.309 28.0721C117.946 28.1545 117.499 28.2025 116.971 28.2163C116.037 28.2437 115.196 28.103 114.448 27.794C113.699 27.4782 113.105 26.9908 112.666 26.3317C112.233 25.6726 112.021 24.8487 112.027 23.8601V8.39205ZM128.827 28.3089C127.241 28.3089 125.871 27.9794 124.718 27.3203C123.571 26.6544 122.689 25.7138 122.071 24.4986C121.453 23.2765 121.144 21.8382 121.144 20.1836C121.144 18.5565 121.453 17.1284 122.071 15.8995C122.696 14.6637 123.568 13.7025 124.687 13.016C125.806 12.3226 127.12 11.9759 128.631 11.9759C129.606 11.9759 130.526 12.1338 131.391 12.4496C132.263 12.7585 133.032 13.2391 133.698 13.8913C134.37 14.5436 134.899 15.3743 135.284 16.3835C135.668 17.3859 135.86 18.5805 135.86 19.9673V21.1104H122.895V18.5977H132.287C132.28 17.8836 132.125 17.2486 131.823 16.6925C131.521 16.1295 131.099 15.6867 130.557 15.364C130.021 15.0413 129.396 14.88 128.682 14.88C127.92 14.88 127.251 15.0653 126.674 15.4361C126.097 15.8 125.648 16.2805 125.325 16.8778C125.009 17.4683 124.848 18.1171 124.841 18.8242V21.0178C124.841 21.9377 125.009 22.7273 125.346 23.3864C125.682 24.0386 126.152 24.5398 126.757 24.8899C127.361 25.2332 128.068 25.4048 128.878 25.4048C129.42 25.4048 129.911 25.3293 130.351 25.1783C130.79 25.0204 131.171 24.7904 131.494 24.4883C131.816 24.1862 132.06 23.812 132.225 23.3658L135.706 23.7571C135.486 24.6771 135.067 25.4804 134.449 26.1669C133.838 26.8466 133.056 27.3752 132.101 27.7528C131.147 28.1236 130.055 28.3089 128.827 28.3089ZM139.014 28V12.1818H142.629V14.8182H142.794C143.082 13.9051 143.576 13.2013 144.277 12.707C144.984 12.2058 145.79 11.9553 146.697 11.9553C146.903 11.9553 147.133 11.9656 147.387 11.9861C147.648 11.9999 147.864 12.0239 148.035 12.0582V15.4876C147.878 15.4326 147.627 15.3846 147.284 15.3434C146.947 15.2953 146.621 15.2713 146.305 15.2713C145.626 15.2713 145.015 15.4189 144.472 15.7141C143.937 16.0025 143.514 16.4041 143.206 16.919C142.897 17.4339 142.742 18.0278 142.742 18.7006V28H139.014Z" fill="#0B2641"/>
<path d="M0.306818 46.1136V43.0625H0.869318C1.0625 42.8864 1.24432 42.6378 1.41477 42.3168C1.58807 41.9929 1.73438 41.5611 1.85369 41.0213C1.97585 40.4787 2.05682 39.7898 2.09659 38.9545L2.28409 35.2727H7.46591V43.0625H8.47159V46.0966H7.46591V44H1.3125V46.1136H0.306818ZM2.13068 43.0625H6.46023V36.2102H3.23864L3.10227 38.9545C3.06818 39.5909 3.00852 40.1676 2.9233 40.6847C2.83807 41.1989 2.72869 41.6548 2.59517 42.0526C2.46165 42.4474 2.30682 42.7841 2.13068 43.0625ZM9.35263 44V43.0625H9.59126C9.78729 43.0625 9.95064 43.0241 10.0813 42.9474C10.212 42.8679 10.3171 42.7301 10.3967 42.5341C10.479 42.3352 10.5415 42.0597 10.5842 41.7074C10.6296 41.3523 10.6623 40.9006 10.6822 40.3523L10.8015 37.4545H15.1651V44H14.1594V38.392H11.756L11.6538 40.7273C11.631 41.2642 11.5827 41.7372 11.5089 42.1463C11.4379 42.5526 11.3285 42.8935 11.1808 43.169C11.0359 43.4446 10.8427 43.652 10.6012 43.7912C10.3597 43.9304 10.0572 44 9.69354 44H9.35263ZM20.9478 44V38.375H19.2092C18.8171 38.375 18.5089 38.4659 18.2844 38.6477C18.06 38.8295 17.9478 39.0795 17.9478 39.3977C17.9478 39.7102 18.0487 39.956 18.2504 40.1349C18.4549 40.3139 18.7347 40.4034 19.0898 40.4034H21.2035V41.3409H19.0898C18.6467 41.3409 18.2646 41.2628 17.9435 41.1065C17.6225 40.9503 17.3754 40.7273 17.2021 40.4375C17.0288 40.1449 16.9421 39.7983 16.9421 39.3977C16.9421 38.9943 17.033 38.6477 17.2148 38.358C17.3967 38.0682 17.6566 37.8452 17.9947 37.6889C18.3356 37.5327 18.7404 37.4545 19.2092 37.4545H21.9023V44H20.9478ZM16.5842 44L18.4421 40.7443H19.533L17.6751 44H16.5842ZM26.7486 38.392V37.4545H32.0668V38.392H29.919V44H28.9134V38.392H26.7486ZM35.9382 44.1364C35.3075 44.1364 34.7635 43.9972 34.3061 43.7188C33.8516 43.4375 33.5007 43.0455 33.2536 42.5426C33.0092 42.0369 32.8871 41.4489 32.8871 40.7784C32.8871 40.108 33.0092 39.517 33.2536 39.0057C33.5007 38.4915 33.8445 38.0909 34.2848 37.804C34.728 37.5142 35.245 37.3693 35.8359 37.3693C36.1768 37.3693 36.5135 37.4261 36.8459 37.5398C37.1783 37.6534 37.4808 37.8381 37.7536 38.0938C38.0263 38.3466 38.2436 38.6818 38.4055 39.0994C38.5675 39.517 38.6484 40.0312 38.6484 40.642V41.0682H33.603V40.1989H37.6257C37.6257 39.8295 37.5518 39.5 37.4041 39.2102C37.2592 38.9205 37.0518 38.6918 36.782 38.5241C36.5149 38.3565 36.1996 38.2727 35.8359 38.2727C35.4354 38.2727 35.0888 38.3722 34.7962 38.571C34.5064 38.767 34.2834 39.0227 34.1271 39.3381C33.9709 39.6534 33.8928 39.9915 33.8928 40.3523V40.9318C33.8928 41.4261 33.978 41.8452 34.1484 42.1889C34.3217 42.5298 34.5618 42.7898 34.8686 42.9688C35.1754 43.1449 35.532 43.233 35.9382 43.233C36.2024 43.233 36.4411 43.196 36.6541 43.1222C36.87 43.0455 37.0561 42.9318 37.2124 42.7812C37.3686 42.6278 37.4893 42.4375 37.5746 42.2102L38.5462 42.483C38.4439 42.8125 38.272 43.1023 38.0305 43.3523C37.7891 43.5994 37.4908 43.7926 37.1357 43.9318C36.7805 44.0682 36.3814 44.1364 35.9382 44.1364ZM40.7525 37.4545L42.3207 40.1307L43.8888 37.4545H45.0479L42.9343 40.7273L45.0479 44H43.8888L42.3207 41.4602L40.7525 44H39.5934L41.6729 40.7273L39.5934 37.4545H40.7525ZM47.983 42.8068L47.9148 43.267C47.8665 43.5909 47.7926 43.9375 47.6932 44.3068C47.5966 44.6761 47.4957 45.0241 47.3906 45.3509C47.2855 45.6776 47.1989 45.9375 47.1307 46.1307H46.3636C46.4006 45.9489 46.4489 45.7088 46.5085 45.4105C46.5682 45.1122 46.6278 44.7784 46.6875 44.4091C46.75 44.0426 46.8011 43.6676 46.8409 43.2841L46.892 42.8068H47.983ZM53.2212 44V37.4545H54.2269V40.3011H54.8917L57.244 37.4545H58.5394L55.8974 40.608L58.5735 44H57.2781L55.1303 41.2386H54.2269V44H53.2212ZM59.2915 38.392V37.4545H64.6097V38.392H62.462V44H61.4563V38.392H59.2915ZM68.396 44.1364C67.805 44.1364 67.2866 43.9957 66.8406 43.7145C66.3974 43.4332 66.0508 43.0398 65.8008 42.5341C65.5536 42.0284 65.43 41.4375 65.43 40.7614C65.43 40.0795 65.5536 39.4844 65.8008 38.9759C66.0508 38.4673 66.3974 38.0724 66.8406 37.7912C67.2866 37.5099 67.805 37.3693 68.396 37.3693C68.9869 37.3693 69.5039 37.5099 69.9471 37.7912C70.3931 38.0724 70.7397 38.4673 70.9869 38.9759C71.2369 39.4844 71.3619 40.0795 71.3619 40.7614C71.3619 41.4375 71.2369 42.0284 70.9869 42.5341C70.7397 43.0398 70.3931 43.4332 69.9471 43.7145C69.5039 43.9957 68.9869 44.1364 68.396 44.1364ZM68.396 43.233C68.8448 43.233 69.2141 43.1179 69.5039 42.8878C69.7937 42.6577 70.0082 42.3551 70.1474 41.9801C70.2866 41.6051 70.3562 41.1989 70.3562 40.7614C70.3562 40.3239 70.2866 39.9162 70.1474 39.5384C70.0082 39.1605 69.7937 38.8551 69.5039 38.6222C69.2141 38.3892 68.8448 38.2727 68.396 38.2727C67.9471 38.2727 67.5778 38.3892 67.288 38.6222C66.9982 38.8551 66.7837 39.1605 66.6445 39.5384C66.5053 39.9162 66.4357 40.3239 66.4357 40.7614C66.4357 41.1989 66.5053 41.6051 66.6445 41.9801C66.7837 42.3551 66.9982 42.6577 67.288 42.8878C67.5778 43.1179 67.9471 43.233 68.396 43.233ZM77.2777 42.517L80.4311 37.4545H81.5902V44H80.5845V38.9375L77.4482 44H76.272V37.4545H77.2777V42.517ZM92.364 43.0625L92.2447 45.875H91.2049V44H90.3526V43.0625H92.364ZM83.4322 37.4545H84.4379V43.0625H86.9094V37.4545H87.9151V43.0625H90.3867V37.4545H91.3924V44H83.4322V37.4545ZM96.5007 44.1364C95.87 44.1364 95.326 43.9972 94.8686 43.7188C94.4141 43.4375 94.0632 43.0455 93.8161 42.5426C93.5717 42.0369 93.4496 41.4489 93.4496 40.7784C93.4496 40.108 93.5717 39.517 93.8161 39.0057C94.0632 38.4915 94.407 38.0909 94.8473 37.804C95.2905 37.5142 95.8075 37.3693 96.3984 37.3693C96.7393 37.3693 97.076 37.4261 97.4084 37.5398C97.7408 37.6534 98.0433 37.8381 98.3161 38.0938C98.5888 38.3466 98.8061 38.6818 98.968 39.0994C99.13 39.517 99.2109 40.0312 99.2109 40.642V41.0682H94.1655V40.1989H98.1882C98.1882 39.8295 98.1143 39.5 97.9666 39.2102C97.8217 38.9205 97.6143 38.6918 97.3445 38.5241C97.0774 38.3565 96.7621 38.2727 96.3984 38.2727C95.9979 38.2727 95.6513 38.3722 95.3587 38.571C95.0689 38.767 94.8459 39.0227 94.6896 39.3381C94.5334 39.6534 94.4553 39.9915 94.4553 40.3523V40.9318C94.4553 41.4261 94.5405 41.8452 94.7109 42.1889C94.8842 42.5298 95.1243 42.7898 95.4311 42.9688C95.7379 43.1449 96.0945 43.233 96.5007 43.233C96.7649 43.233 97.0036 43.196 97.2166 43.1222C97.4325 43.0455 97.6186 42.9318 97.7749 42.7812C97.9311 42.6278 98.0518 42.4375 98.1371 42.2102L99.1087 42.483C99.0064 42.8125 98.8345 43.1023 98.593 43.3523C98.3516 43.5994 98.0533 43.7926 97.6982 43.9318C97.343 44.0682 96.9439 44.1364 96.5007 44.1364ZM100.131 38.392V37.4545H105.45V38.392H103.302V44H102.296V38.392H100.131ZM110.292 46.4545V37.4545H111.263V38.4943H111.382C111.456 38.3807 111.559 38.2358 111.689 38.0597C111.823 37.8807 112.013 37.7216 112.26 37.5824C112.51 37.4403 112.848 37.3693 113.275 37.3693C113.826 37.3693 114.311 37.5071 114.732 37.7827C115.152 38.0582 115.48 38.4489 115.716 38.9545C115.952 39.4602 116.07 40.0568 116.07 40.7443C116.07 41.4375 115.952 42.0384 115.716 42.5469C115.48 43.0526 115.154 43.4446 114.736 43.723C114.319 43.9986 113.837 44.1364 113.292 44.1364C112.871 44.1364 112.534 44.0668 112.282 43.9276C112.029 43.7855 111.834 43.625 111.698 43.446C111.561 43.2642 111.456 43.1136 111.382 42.9943H111.297V46.4545H110.292ZM111.28 40.7273C111.28 41.2216 111.353 41.6577 111.498 42.0355C111.642 42.4105 111.854 42.7045 112.132 42.9176C112.411 43.1278 112.752 43.233 113.155 43.233C113.576 43.233 113.926 43.1222 114.208 42.9006C114.492 42.6761 114.705 42.375 114.847 41.9972C114.992 41.6165 115.064 41.1932 115.064 40.7273C115.064 40.267 114.993 39.8523 114.851 39.483C114.712 39.1108 114.5 38.8168 114.216 38.6009C113.935 38.3821 113.581 38.2727 113.155 38.2727C112.746 38.2727 112.402 38.3764 112.124 38.5838C111.846 38.7884 111.635 39.0753 111.493 39.4446C111.351 39.8111 111.28 40.2386 111.28 40.7273ZM119.53 44.1534C119.115 44.1534 118.739 44.0753 118.401 43.919C118.063 43.7599 117.794 43.5312 117.596 43.233C117.397 42.9318 117.297 42.5682 117.297 42.142C117.297 41.767 117.371 41.4631 117.519 41.2301C117.667 40.9943 117.864 40.8097 118.111 40.6761C118.358 40.5426 118.631 40.4432 118.929 40.3778C119.23 40.3097 119.533 40.2557 119.837 40.2159C120.235 40.1648 120.557 40.1264 120.804 40.1009C121.054 40.0724 121.236 40.0256 121.35 39.9602C121.466 39.8949 121.525 39.7812 121.525 39.6193V39.5852C121.525 39.1648 121.409 38.8381 121.179 38.6051C120.952 38.3722 120.607 38.2557 120.144 38.2557C119.664 38.2557 119.287 38.3608 119.015 38.571C118.742 38.7812 118.55 39.0057 118.439 39.2443L117.485 38.9034C117.655 38.5057 117.882 38.196 118.167 37.9744C118.453 37.75 118.766 37.5937 119.104 37.5057C119.445 37.4148 119.78 37.3693 120.11 37.3693C120.32 37.3693 120.561 37.3949 120.834 37.446C121.11 37.4943 121.375 37.5952 121.631 37.7486C121.89 37.902 122.104 38.1335 122.275 38.4432C122.445 38.7528 122.53 39.1676 122.53 39.6875V44H121.525V43.1136H121.473C121.405 43.2557 121.292 43.4077 121.132 43.5696C120.973 43.7315 120.762 43.8693 120.498 43.983C120.233 44.0966 119.911 44.1534 119.53 44.1534ZM119.684 43.25C120.081 43.25 120.417 43.1719 120.689 43.0156C120.965 42.8594 121.172 42.6577 121.311 42.4105C121.453 42.1634 121.525 41.9034 121.525 41.6307V40.7102C121.482 40.7614 121.388 40.8082 121.243 40.8509C121.101 40.8906 120.936 40.9261 120.749 40.9574C120.564 40.9858 120.384 41.0114 120.208 41.0341C120.034 41.054 119.894 41.071 119.786 41.0852C119.525 41.1193 119.28 41.1747 119.053 41.2514C118.828 41.3253 118.647 41.4375 118.507 41.5881C118.371 41.7358 118.303 41.9375 118.303 42.1932C118.303 42.5426 118.432 42.8068 118.691 42.9858C118.952 43.1619 119.283 43.25 119.684 43.25ZM129.224 35L129.735 35.6136C129.536 35.8068 129.306 35.9418 129.045 36.0185C128.783 36.0952 128.488 36.142 128.158 36.1591C127.829 36.1761 127.462 36.1932 127.059 36.2102C126.604 36.2273 126.228 36.3381 125.93 36.5426C125.631 36.7472 125.401 37.0426 125.239 37.429C125.077 37.8153 124.974 38.2898 124.928 38.8523H125.013C125.235 38.4432 125.542 38.142 125.934 37.9489C126.326 37.7557 126.746 37.6591 127.195 37.6591C127.707 37.6591 128.167 37.7784 128.576 38.017C128.985 38.2557 129.309 38.6094 129.548 39.0781C129.786 39.5469 129.906 40.125 129.906 40.8125C129.906 41.4972 129.783 42.0881 129.539 42.5852C129.298 43.0824 128.958 43.4659 128.521 43.7358C128.086 44.0028 127.576 44.1364 126.991 44.1364C126.406 44.1364 125.893 43.9986 125.452 43.723C125.012 43.4446 124.67 43.0327 124.425 42.4872C124.181 41.9389 124.059 41.2614 124.059 40.4545V39.7557C124.059 38.2983 124.306 37.1932 124.8 36.4403C125.298 35.6875 126.045 35.2983 127.042 35.2727C127.394 35.2614 127.708 35.2585 127.984 35.2642C128.259 35.2699 128.499 35.2571 128.704 35.2259C128.908 35.1946 129.082 35.1193 129.224 35ZM126.991 43.233C127.386 43.233 127.725 43.1335 128.009 42.9347C128.296 42.7358 128.516 42.456 128.67 42.0952C128.823 41.7315 128.9 41.304 128.9 40.8125C128.9 40.3352 128.822 39.929 128.665 39.5938C128.512 39.2585 128.292 39.0028 128.005 38.8267C127.718 38.6506 127.374 38.5625 126.974 38.5625C126.681 38.5625 126.418 38.6122 126.185 38.7116C125.952 38.8111 125.754 38.9574 125.589 39.1506C125.424 39.3437 125.296 39.5795 125.205 39.858C125.117 40.1364 125.07 40.4545 125.065 40.8125C125.065 41.5455 125.237 42.1321 125.58 42.5724C125.924 43.0128 126.394 43.233 126.991 43.233ZM134.103 44.1364C133.512 44.1364 132.994 43.9957 132.548 43.7145C132.104 43.4332 131.758 43.0398 131.508 42.5341C131.261 42.0284 131.137 41.4375 131.137 40.7614C131.137 40.0795 131.261 39.4844 131.508 38.9759C131.758 38.4673 132.104 38.0724 132.548 37.7912C132.994 37.5099 133.512 37.3693 134.103 37.3693C134.694 37.3693 135.211 37.5099 135.654 37.7912C136.1 38.0724 136.447 38.4673 136.694 38.9759C136.944 39.4844 137.069 40.0795 137.069 40.7614C137.069 41.4375 136.944 42.0284 136.694 42.5341C136.447 43.0398 136.1 43.4332 135.654 43.7145C135.211 43.9957 134.694 44.1364 134.103 44.1364ZM134.103 43.233C134.552 43.233 134.921 43.1179 135.211 42.8878C135.501 42.6577 135.715 42.3551 135.854 41.9801C135.994 41.6051 136.063 41.1989 136.063 40.7614C136.063 40.3239 135.994 39.9162 135.854 39.5384C135.715 39.1605 135.501 38.8551 135.211 38.6222C134.921 38.3892 134.552 38.2727 134.103 38.2727C133.654 38.2727 133.285 38.3892 132.995 38.6222C132.705 38.8551 132.491 39.1605 132.352 39.5384C132.212 39.9162 132.143 40.3239 132.143 40.7614C132.143 41.1989 132.212 41.6051 132.352 41.9801C132.491 42.3551 132.705 42.6577 132.995 42.8878C133.285 43.1179 133.654 43.233 134.103 43.233ZM137.749 38.392V37.4545H143.067V38.392H140.919V44H139.913V38.392H137.749ZM145.181 46.4545C145.011 46.4545 144.859 46.4403 144.725 46.4119C144.592 46.3864 144.5 46.3608 144.449 46.3352L144.704 45.4489C144.949 45.5114 145.164 45.5341 145.352 45.517C145.539 45.5 145.706 45.4162 145.85 45.2656C145.998 45.1179 146.133 44.8778 146.255 44.5455L146.443 44.0341L144.022 37.4545H145.113L146.92 42.6705H146.988L148.795 37.4545H149.886L147.108 44.9545C146.983 45.2926 146.828 45.5724 146.643 45.794C146.458 46.0185 146.244 46.1847 146 46.2926C145.758 46.4006 145.485 46.4545 145.181 46.4545Z" fill="#0B2641"/>
</svg>
