<svg width="18" height="18" viewBox="0 0 18 18" fill="none" xmlns="http://www.w3.org/2000/svg">
<path d="M14.3 7.15C14.3 8.72781 13.7878 10.1853 12.925 11.3678L17.2769 15.7231C17.7066 16.1528 17.7066 16.8506 17.2769 17.2803C16.8472 17.71 16.1494 17.71 15.7197 17.2803L11.3678 12.925C10.1853 13.7878 8.72781 14.3 7.15 14.3C3.20031 14.3 0 11.0997 0 7.15C0 3.20031 3.20031 0 7.15 0C11.0997 0 14.3 3.20031 14.3 7.15ZM7.15 12.1C9.88281 12.1 12.1 9.88281 12.1 7.15C12.1 4.41719 9.88281 2.2 7.15 2.2C4.41719 2.2 2.2 4.41719 2.2 7.15C2.2 9.88281 4.41719 12.1 7.15 12.1Z" fill="#CCCCCC"/>
</svg>
