<svg width="16" height="20" viewBox="0 0 16 20" fill="none" xmlns="http://www.w3.org/2000/svg">
<path d="M7.875 16.5371L12.206 12.206C14.598 9.81409 14.598 5.93593 12.206 3.54397C9.81409 1.15201 5.93593 1.15201 3.54397 3.54397C1.15201 5.93593 1.15201 9.81409 3.54397 12.206L7.875 16.5371ZM7.875 19.0119L2.30654 13.4435C-0.768845 10.3681 -0.768845 5.38192 2.30654 2.30654C5.38192 -0.768845 10.3681 -0.768845 13.4435 2.30654C16.5189 5.38192 16.5189 10.3681 13.4435 13.4435L7.875 19.0119ZM7.875 9.625C8.84153 9.625 9.625 8.84153 9.625 7.875C9.625 6.9085 8.84153 6.125 7.875 6.125C6.90847 6.125 6.125 6.9085 6.125 7.875C6.125 8.84153 6.90847 9.625 7.875 9.625ZM7.875 11.375C5.942 11.375 4.375 9.80796 4.375 7.875C4.375 5.942 5.942 4.375 7.875 4.375C9.80796 4.375 11.375 5.942 11.375 7.875C11.375 9.80796 9.80796 11.375 7.875 11.375Z" fill="#0B2641"/>
</svg>
