<svg width="42" height="42" viewBox="0 0 42 42" fill="none" xmlns="http://www.w3.org/2000/svg">
<rect width="42" height="42" rx="10" fill="#27A746"/>
<path d="M23.383 17.3337H29.2498C30.2624 17.3337 31.0832 18.1545 31.0832 19.167V21.0961C31.0832 21.3355 31.0362 21.5726 30.9451 21.7941L28.1086 28.6828C27.9671 29.0262 27.6324 29.2504 27.2609 29.2504H11.8332C11.3269 29.2504 10.9165 28.84 10.9165 28.3337V19.167C10.9165 18.6608 11.3269 18.2504 11.8332 18.2504H15.0249C15.3227 18.2504 15.602 18.1057 15.7737 17.8623L20.7727 10.7805C20.9033 10.5954 21.1495 10.5336 21.3521 10.6349L23.015 11.4663C23.979 11.9483 24.4768 13.0369 24.211 14.0814L23.383 17.3337ZM16.4165 19.7056V27.417H26.6471L29.2498 21.0961V19.167H23.383C22.187 19.167 21.3113 18.0404 21.6063 16.8814L22.4343 13.6291C22.4875 13.4202 22.3879 13.2025 22.1951 13.1061L21.5891 12.8031L17.2715 18.9196C17.0424 19.2441 16.7496 19.5101 16.4165 19.7056ZM14.5832 20.0837H12.7498V27.417H14.5832V20.0837Z" fill="white"/>
</svg>
