<svg width="24" height="15" viewBox="0 0 24 15" fill="none" xmlns="http://www.w3.org/2000/svg">
<g clip-path="url(#clip0_157_220)">
<path d="M23.7932 7.86047C22.051 9.72226 20.5266 11.2035 18.6655 12.5744C15.3661 15.0068 11.679 15.7985 7.7419 14.0759C4.73472 12.7644 2.22416 10.7559 0.326155 8.13419C-0.0135065 7.66643 -0.151128 7.48337 0.220743 7.00407C2.88943 3.56114 6.13553 0.811765 10.6829 0.114172C13.7176 -0.351853 16.4958 0.658157 18.8231 2.43448C20.6385 3.82043 22.1465 5.29357 23.8272 7.08376C24.0556 7.30955 24.0667 7.57115 23.7932 7.86047ZM2.17379 7.052C2.06796 7.17197 2.00937 7.32545 2.00873 7.48446C2.00808 7.64347 2.06542 7.79741 2.17028 7.91821C3.93359 9.93592 5.92647 11.5904 8.38725 12.6535C10.133 13.4043 11.9566 13.6757 13.8277 13.1733C17.0486 12.3071 19.4754 10.3263 21.6247 7.90262C21.7232 7.79145 21.7778 7.64898 21.7784 7.50134C21.7791 7.3537 21.7257 7.21078 21.6282 7.09877C19.8555 5.07125 17.8591 3.40291 15.3855 2.33227C12.9118 1.26162 10.4621 1.35055 8.0271 2.49512C5.74083 3.56749 3.87269 5.13939 2.17379 7.05373V7.052Z" fill="#53575C" fill-opacity="0.458824"/>
<path d="M11.8442 12.1121C9.21765 12.0931 7.1668 10.0112 7.20662 7.4045C7.24586 4.85551 9.33185 2.85455 11.9308 2.87361C14.5574 2.89267 16.6082 4.97447 16.5678 7.58121C16.5292 10.1302 14.4432 12.1312 11.8442 12.1121ZM11.8705 10.5916C13.5688 10.6026 15.0165 9.19007 15.0276 7.5096C15.0387 5.82914 13.6075 4.40508 11.9045 4.39411C10.2015 4.38314 8.75853 5.79565 8.7474 7.47611C8.73627 9.15657 10.1675 10.5806 11.8705 10.5916Z" fill="#53575C" fill-opacity="0.458824"/>
</g>
<defs>
<clipPath id="clip0_157_220">
<rect width="24" height="15" fill="white"/>
</clipPath>
</defs>
</svg>
