<svg width="356" height="145" viewBox="0 0 356 145" fill="none" xmlns="http://www.w3.org/2000/svg">
<path d="M0.142591 -17.7707C-0.888045 -31.3228 3.75479 -44.0403 11.1393 -55.3625C18.5151 -66.6716 28.9054 -77.0371 40.2404 -86.1683C60.7912 -102.724 85.3796 -115.962 103.61 -123.933C102.373 -141.462 104.451 -165.306 114.512 -186.464C126.021 -210.667 147.952 -231.128 185.827 -234.217C204.616 -235.749 219.669 -232.028 231.32 -224.212C242.924 -216.426 250.348 -205.117 254.884 -192.894C260.911 -176.652 262.105 -158.12 261.013 -141.859C271.789 -149.988 284.545 -157.609 297.281 -161.441C307.407 -164.488 318.409 -165.406 328.555 -161.272C338.968 -157.029 347.013 -148.073 352.136 -134.403C362.302 -107.277 355.774 -83.4442 341.874 -65.8912C331.128 -52.3216 315.97 -42.4337 300.603 -37.2007C313.116 -19.9161 322.425 1.25294 326.468 22.417C331.313 47.7758 328.794 74.3976 313.46 94.1537C305.218 104.773 294.473 109.439 282.815 109.416C271.592 109.395 260.051 105.052 249.335 98.9007C233.307 89.7002 217.6 75.5662 205.072 61.54C202.157 78.2977 197.728 97.2651 190.339 112.684C185.249 123.309 178.379 133.069 168.86 139.027C158.978 145.212 147.092 146.762 133.507 142.394C107.213 133.939 92.0055 113.334 85.1999 89.7501C79.9114 71.4231 79.5492 50.9793 82.8554 31.9184C67.5665 36.3088 51.1555 36.368 36.879 31.3691C17.2874 24.5092 2.11501 8.16399 0.142591 -17.7707ZM24.508 -46.4169C18.3517 -36.9778 15.362 -27.7201 16.043 -18.7643C17.4943 0.316276 28.0265 11.3491 41.9223 16.2146C56.345 21.2646 74.744 19.6809 90.3762 11.7211L106.923 3.29509L101.713 21.2476C95.7212 41.8925 94.7613 65.5618 100.509 85.4804C106.199 105.196 118.212 120.695 138.158 127.109C147.692 130.174 154.69 128.87 160.298 125.36C166.27 121.622 171.498 114.847 175.957 105.541C184.906 86.8656 189.245 61.3111 191.989 41.5235L194.623 22.525L206.221 37.9649C218.823 54.7419 238.135 74.1082 257.081 84.9841C266.565 90.4283 275.277 93.3491 282.615 93.3634C289.518 93.3767 295.644 90.8518 300.84 84.1567C312.384 69.2837 315.152 47.9521 310.81 25.2269C306.485 2.59056 295.297 -20.1696 280.776 -36.6237L271.279 -47.3831L285.233 -49.8144C300.961 -52.555 318.234 -61.9742 329.348 -76.0091C340.214 -89.7302 345.171 -107.728 337.226 -128.928C333.293 -139.422 328.002 -144.267 322.757 -146.404C317.245 -148.65 310.267 -148.527 302.051 -146.055C285.46 -141.063 267.47 -127.58 255.892 -116.286L237.091 -97.9464L242.496 -123.849C246.207 -141.636 247.413 -167.373 239.955 -187.47C236.287 -197.353 230.679 -205.48 222.61 -210.893C214.586 -216.277 203.323 -219.519 187.344 -218.216C155.683 -215.634 138.3 -199.099 128.915 -179.363C119.292 -159.126 118.073 -135.316 120.014 -119.656L120.763 -113.608L115.192 -111.333C97.6379 -104.161 71.4903 -90.6364 50.314 -73.5773C39.731 -65.0519 30.6729 -55.8691 24.508 -46.4169Z" fill="#F6FF98"/>
</svg>
